<svg xmlns="http://www.w3.org/2000/svg"  viewBox="0 0 64 64" width="64px" height="64px"><rect width="50" height="50" x="7" y="7" fill="#d2edff" rx="2" ry="2"/><path fill="#bbdef9" d="M11,32H53a4,4,0,0,1,4,4V54a3,3,0,0,1-3,3H10a3,3,0,0,1-3-3V36a4,4,0,0,1,4-4Z"/><rect width="38" height="38" x="13" y="13" fill="#6e91ce" rx="2" ry="2"/><path fill="#8d6c9f" d="M50,12H14a2,2,0,0,0-2,2V50a2,2,0,0,0,2,2h3a1,1,0,0,0,0-2H14V14H50V50H47a1,1,0,0,0,0,2h3a2,2,0,0,0,2-2V14A2,2,0,0,0,50,12Z"/><path fill="#8d6c9f" d="M55,6H9A3,3,0,0,0,6,9V55a3,3,0,0,0,3,3H55a3,3,0,0,0,3-3V9A3,3,0,0,0,55,6Zm1,49a1,1,0,0,1-1,1H9a1,1,0,0,1-1-1V9A1,1,0,0,1,9,8H55a1,1,0,0,1,1,1Z"/><path fill="#8d6c9f" d="M27 48a1 1 0 0 0-1 1v2a1 1 0 0 0 2 0V49A1 1 0 0 0 27 48zM32 48a1 1 0 0 0-1 1v2a1 1 0 0 0 2 0V49A1 1 0 0 0 32 48zM37 48a1 1 0 0 0-1 1v2a1 1 0 0 0 2 0V49A1 1 0 0 0 37 48zM42 48a1 1 0 0 0-1 1v2a1 1 0 0 0 2 0V49A1 1 0 0 0 42 48zM22 48a1 1 0 0 0-1 1v2a1 1 0 0 0 2 0V49A1 1 0 0 0 22 48z"/><path fill="#faefde" d="M32 27a5 5 0 0 0-5-5H23a1 1 0 0 0-1 1V41a1 1 0 0 0 2 0V34h3a5 5 0 0 0 5-5zm-2 2a3 3 0 0 1-3 3H24V24h3a3 3 0 0 1 3 3zM39.27 34.37l-1.9-.63A2 2 0 0 1 36 31.84 1.84 1.84 0 0 1 37.84 30h.32a1.83 1.83 0 0 1 1.44.69 1 1 0 0 0 1.56-1.25 3.82 3.82 0 0 0-3-1.44h-.32A3.84 3.84 0 0 0 34 31.84a4 4 0 0 0 2.73 3.79l1.9.63A2 2 0 0 1 40 38.16 1.84 1.84 0 0 1 38.16 40h-.32a1.83 1.83 0 0 1-1.43-.68 1 1 0 0 0-1.55 1.26 3.83 3.83 0 0 0 3 1.41h.32A3.84 3.84 0 0 0 42 38.16 4 4 0 0 0 39.27 34.37z"/></svg>